<?xml version="1.0" encoding="UTF-8" standalone="no"?>
<!DOCTYPE svg PUBLIC "-//W3C//DTD SVG 1.1//EN"
 "http://www.w3.org/Graphics/SVG/1.1/DTD/svg11.dtd">
<!-- Generated by graphviz version 2.36.0 (20140111.2315)
 -->
<!-- Title: %3 Pages: 1 -->
<svg width="722pt" height="2114pt"
 viewBox="0.00 0.00 722.00 2114.00" xmlns="http://www.w3.org/2000/svg" xmlns:xlink="http://www.w3.org/1999/xlink">
<g id="graph0" class="graph" transform="scale(1 1) rotate(0) translate(4 2110)">
<title>%3</title>
<polygon fill="white" stroke="none" points="-4,4 -4,-2110 718,-2110 718,4 -4,4"/>
<!-- 41 -->
<g id="node1" class="node"><title>41</title>
<g id="a_node1"><a xlink:title="/Users/Dave/anaconda/envs/neddy/lib/python3.9/site&#45;packages/pluggy/_callers.py">
<polygon fill="#ff0000" stroke="#ff0000" points="397,-1370 293,-1370 293,-1318 397,-1318 397,-1370"/>
<text text-anchor="middle" x="345" y="-1358" font-family="Arial" font-size="10.00" fill="#ffffff">_callers:9:_multicall</text>
<text text-anchor="middle" x="345" y="-1347" font-family="Arial" font-size="10.00" fill="#ffffff">100.00%</text>
<text text-anchor="middle" x="345" y="-1336" font-family="Arial" font-size="10.00" fill="#ffffff">(0.00%)</text>
<text text-anchor="middle" x="345" y="-1325" font-family="Arial" font-size="10.00" fill="#ffffff">76×</text>
</a>
</g>
</g>
<!-- 1981 -->
<g id="node2" class="node"><title>1981</title>
<g id="a_node2"><a xlink:title="/Users/Dave/anaconda/envs/neddy/lib/python3.9/site&#45;packages/_pytest/runner.py">
<polygon fill="#ff0000" stroke="#ff0000" points="420.25,-1278 269.75,-1278 269.75,-1226 420.25,-1226 420.25,-1278"/>
<text text-anchor="middle" x="345" y="-1266" font-family="Arial" font-size="10.00" fill="#ffffff">runner:160:pytest_runtest_call</text>
<text text-anchor="middle" x="345" y="-1255" font-family="Arial" font-size="10.00" fill="#ffffff">99.99%</text>
<text text-anchor="middle" x="345" y="-1244" font-family="Arial" font-size="10.00" fill="#ffffff">(0.00%)</text>
<text text-anchor="middle" x="345" y="-1233" font-family="Arial" font-size="10.00" fill="#ffffff">5×</text>
</a>
</g>
</g>
<!-- 41&#45;&gt;1981 -->
<g id="edge1" class="edge"><title>41&#45;&gt;1981</title>
<path fill="none" stroke="#ff0000" stroke-width="4" d="M345,-1317.93C345,-1308.74 345,-1298.17 345,-1288.25"/>
<polygon fill="#ff0000" stroke="#ff0000" stroke-width="4" points="348.5,-1288.25 345,-1278.25 341.5,-1288.25 348.5,-1288.25"/>
<text text-anchor="middle" x="362" y="-1301" font-family="Arial" font-size="10.00" fill="#ff0000">99.99%</text>
<text text-anchor="middle" x="362" y="-1290" font-family="Arial" font-size="10.00" fill="#ff0000">5×</text>
</g>
<!-- 570 -->
<g id="node22" class="node"><title>570</title>
<g id="a_node22"><a xlink:title="/Users/Dave/anaconda/envs/neddy/lib/python3.9/site&#45;packages/_pytest/unittest.py">
<polygon fill="#ff0000" stroke="#ff0000" points="396,-1186 294,-1186 294,-1134 396,-1134 396,-1186"/>
<text text-anchor="middle" x="345" y="-1174" font-family="Arial" font-size="10.00" fill="#ffffff">unittest:304:runtest</text>
<text text-anchor="middle" x="345" y="-1163" font-family="Arial" font-size="10.00" fill="#ffffff">99.99%</text>
<text text-anchor="middle" x="345" y="-1152" font-family="Arial" font-size="10.00" fill="#ffffff">(0.00%)</text>
<text text-anchor="middle" x="345" y="-1141" font-family="Arial" font-size="10.00" fill="#ffffff">5×</text>
</a>
</g>
</g>
<!-- 1981&#45;&gt;570 -->
<g id="edge27" class="edge"><title>1981&#45;&gt;570</title>
<path fill="none" stroke="#ff0000" stroke-width="4" d="M345,-1225.93C345,-1216.74 345,-1206.17 345,-1196.25"/>
<polygon fill="#ff0000" stroke="#ff0000" stroke-width="4" points="348.5,-1196.25 345,-1186.25 341.5,-1196.25 348.5,-1196.25"/>
<text text-anchor="middle" x="362" y="-1209" font-family="Arial" font-size="10.00" fill="#ff0000">99.99%</text>
<text text-anchor="middle" x="362" y="-1198" font-family="Arial" font-size="10.00" fill="#ff0000">5×</text>
</g>
<!-- 43 -->
<g id="node3" class="node"><title>43</title>
<g id="a_node3"><a xlink:title="/Users/Dave/anaconda/envs/neddy/lib/python3.9/unittest/case.py">
<polygon fill="#ff0000" stroke="#ff0000" points="382,-1002 308,-1002 308,-950 382,-950 382,-1002"/>
<text text-anchor="middle" x="345" y="-990" font-family="Arial" font-size="10.00" fill="#ffffff">case:558:run</text>
<text text-anchor="middle" x="345" y="-979" font-family="Arial" font-size="10.00" fill="#ffffff">99.99%</text>
<text text-anchor="middle" x="345" y="-968" font-family="Arial" font-size="10.00" fill="#ffffff">(0.00%)</text>
<text text-anchor="middle" x="345" y="-957" font-family="Arial" font-size="10.00" fill="#ffffff">5×</text>
</a>
</g>
</g>
<!-- 2007 -->
<g id="node4" class="node"><title>2007</title>
<g id="a_node4"><a xlink:title="/Users/Dave/anaconda/envs/neddy/lib/python3.9/unittest/case.py">
<polygon fill="#ff0000" stroke="#ff0000" points="411.25,-910 278.75,-910 278.75,-858 411.25,-858 411.25,-910"/>
<text text-anchor="middle" x="345" y="-898" font-family="Arial" font-size="10.00" fill="#ffffff">case:549:_callTestMethod</text>
<text text-anchor="middle" x="345" y="-887" font-family="Arial" font-size="10.00" fill="#ffffff">99.99%</text>
<text text-anchor="middle" x="345" y="-876" font-family="Arial" font-size="10.00" fill="#ffffff">(0.00%)</text>
<text text-anchor="middle" x="345" y="-865" font-family="Arial" font-size="10.00" fill="#ffffff">5×</text>
</a>
</g>
</g>
<!-- 43&#45;&gt;2007 -->
<g id="edge2" class="edge"><title>43&#45;&gt;2007</title>
<path fill="none" stroke="#ff0000" stroke-width="4" d="M345,-949.93C345,-940.743 345,-930.166 345,-920.253"/>
<polygon fill="#ff0000" stroke="#ff0000" stroke-width="4" points="348.5,-920.248 345,-910.248 341.5,-920.248 348.5,-920.248"/>
<text text-anchor="middle" x="362" y="-933" font-family="Arial" font-size="10.00" fill="#ff0000">99.99%</text>
<text text-anchor="middle" x="362" y="-922" font-family="Arial" font-size="10.00" fill="#ff0000">5×</text>
</g>
<!-- 322 -->
<g id="node18" class="node"><title>322</title>
<g id="a_node18"><a xlink:title="/Users/Dave/git_repos/_packages_/python/neddy/neddy/tests/test_cl_utils.py">
<polygon fill="#0ab026" stroke="#0ab026" points="158.25,-818 -0.25,-818 -0.25,-766 158.25,-766 158.25,-818"/>
<text text-anchor="middle" x="79" y="-806" font-family="Arial" font-size="10.00" fill="#ffffff">test_cl_utils:56:test_conesearch</text>
<text text-anchor="middle" x="79" y="-795" font-family="Arial" font-size="10.00" fill="#ffffff">45.76%</text>
<text text-anchor="middle" x="79" y="-784" font-family="Arial" font-size="10.00" fill="#ffffff">(0.00%)</text>
<text text-anchor="middle" x="79" y="-773" font-family="Arial" font-size="10.00" fill="#ffffff">1×</text>
</a>
</g>
</g>
<!-- 2007&#45;&gt;322 -->
<g id="edge28" class="edge"><title>2007&#45;&gt;322</title>
<path fill="none" stroke="#0ab026" stroke-width="1.83" d="M278.563,-860.521C242.488,-848.315 197.609,-833.131 159.552,-820.254"/>
<polygon fill="#0ab026" stroke="#0ab026" stroke-width="1.83" points="160.223,-817.969 153.019,-818.044 158.697,-822.478 160.223,-817.969"/>
<text text-anchor="middle" x="261" y="-841" font-family="Arial" font-size="10.00" fill="#0ab026">45.76%</text>
<text text-anchor="middle" x="261" y="-830" font-family="Arial" font-size="10.00" fill="#0ab026">1×</text>
</g>
<!-- 327 -->
<g id="node19" class="node"><title>327</title>
<g id="a_node19"><a xlink:title="/Users/Dave/git_repos/_packages_/python/neddy/neddy/tests/test_cl_utils.py">
<polygon fill="#0d307d" stroke="#0d307d" points="342,-818 168,-818 168,-766 342,-766 342,-818"/>
<text text-anchor="middle" x="255" y="-806" font-family="Arial" font-size="10.00" fill="#ffffff">test_cl_utils:89:test_conesearch_all</text>
<text text-anchor="middle" x="255" y="-795" font-family="Arial" font-size="10.00" fill="#ffffff">7.79%</text>
<text text-anchor="middle" x="255" y="-784" font-family="Arial" font-size="10.00" fill="#ffffff">(0.00%)</text>
<text text-anchor="middle" x="255" y="-773" font-family="Arial" font-size="10.00" fill="#ffffff">1×</text>
</a>
</g>
</g>
<!-- 2007&#45;&gt;327 -->
<g id="edge29" class="edge"><title>2007&#45;&gt;327</title>
<path fill="none" stroke="#0d307d" stroke-width="0.5" d="M319.93,-857.93C308.421,-846.421 294.734,-832.734 282.899,-820.899"/>
<polygon fill="#0d307d" stroke="#0d307d" stroke-width="0.5" points="283.589,-819.856 280.248,-818.248 281.856,-821.589 283.589,-819.856"/>
<text text-anchor="middle" x="325.5" y="-841" font-family="Arial" font-size="10.00" fill="#0d307d">7.79%</text>
<text text-anchor="middle" x="325.5" y="-830" font-family="Arial" font-size="10.00" fill="#0d307d">1×</text>
</g>
<!-- 328 -->
<g id="node20" class="node"><title>328</title>
<g id="a_node20"><a xlink:title="/Users/Dave/git_repos/_packages_/python/neddy/neddy/tests/test_cl_utils.py">
<polygon fill="#0c968a" stroke="#0c968a" points="520.25,-818 351.75,-818 351.75,-766 520.25,-766 520.25,-818"/>
<text text-anchor="middle" x="436" y="-806" font-family="Arial" font-size="10.00" fill="#ffffff">test_cl_utils:95:test_conesearches</text>
<text text-anchor="middle" x="436" y="-795" font-family="Arial" font-size="10.00" fill="#ffffff">27.22%</text>
<text text-anchor="middle" x="436" y="-784" font-family="Arial" font-size="10.00" fill="#ffffff">(0.00%)</text>
<text text-anchor="middle" x="436" y="-773" font-family="Arial" font-size="10.00" fill="#ffffff">1×</text>
</a>
</g>
</g>
<!-- 2007&#45;&gt;328 -->
<g id="edge30" class="edge"><title>2007&#45;&gt;328</title>
<path fill="none" stroke="#0c968a" stroke-width="1.09" d="M370.349,-857.93C381.594,-846.808 394.897,-833.651 406.578,-822.099"/>
<polygon fill="#0c968a" stroke="#0c968a" stroke-width="1.09" points="408.054,-823.198 410.472,-818.248 405.495,-820.61 408.054,-823.198"/>
<text text-anchor="middle" x="419" y="-841" font-family="Arial" font-size="10.00" fill="#0c968a">27.22%</text>
<text text-anchor="middle" x="419" y="-830" font-family="Arial" font-size="10.00" fill="#0c968a">1×</text>
</g>
<!-- 330 -->
<g id="node21" class="node"><title>330</title>
<g id="a_node21"><a xlink:title="/Users/Dave/git_repos/_packages_/python/neddy/neddy/tests/test_cl_utils.py">
<polygon fill="#0c6d8c" stroke="#0c6d8c" points="714,-818 530,-818 530,-766 714,-766 714,-818"/>
<text text-anchor="middle" x="622" y="-806" font-family="Arial" font-size="10.00" fill="#ffffff">test_cl_utils:107:test_name_searches</text>
<text text-anchor="middle" x="622" y="-795" font-family="Arial" font-size="10.00" fill="#ffffff">19.09%</text>
<text text-anchor="middle" x="622" y="-784" font-family="Arial" font-size="10.00" fill="#ffffff">(0.00%)</text>
<text text-anchor="middle" x="622" y="-773" font-family="Arial" font-size="10.00" fill="#ffffff">1×</text>
</a>
</g>
</g>
<!-- 2007&#45;&gt;330 -->
<g id="edge31" class="edge"><title>2007&#45;&gt;330</title>
<path fill="none" stroke="#0c6d8c" stroke-width="0.76" d="M411.348,-861.443C450.11,-848.849 499.332,-832.856 540.446,-819.498"/>
<polygon fill="#0c6d8c" stroke="#0c6d8c" stroke-width="0.76" points="541.199,-820.872 544.908,-818.048 540.247,-817.943 541.199,-820.872"/>
<text text-anchor="middle" x="534" y="-841" font-family="Arial" font-size="10.00" fill="#0c6d8c">19.09%</text>
<text text-anchor="middle" x="534" y="-830" font-family="Arial" font-size="10.00" fill="#0c6d8c">1×</text>
</g>
<!-- 102 -->
<g id="node5" class="node"><title>102</title>
<g id="a_node5"><a xlink:title="/Users/Dave/anaconda/envs/neddy/lib/python3.9/site&#45;packages/_pytest/runner.py">
<polygon fill="#ff0000" stroke="#ff0000" points="412,-2014 278,-2014 278,-1962 412,-1962 412,-2014"/>
<text text-anchor="middle" x="345" y="-2002" font-family="Arial" font-size="10.00" fill="#ffffff">runner:119:runtestprotocol</text>
<text text-anchor="middle" x="345" y="-1991" font-family="Arial" font-size="10.00" fill="#ffffff">100.00%</text>
<text text-anchor="middle" x="345" y="-1980" font-family="Arial" font-size="10.00" fill="#ffffff">(0.00%)</text>
<text text-anchor="middle" x="345" y="-1969" font-family="Arial" font-size="10.00" fill="#ffffff">5×</text>
</a>
</g>
</g>
<!-- 1230 -->
<g id="node6" class="node"><title>1230</title>
<g id="a_node6"><a xlink:title="/Users/Dave/anaconda/envs/neddy/lib/python3.9/site&#45;packages/_pytest/runner.py">
<polygon fill="#ff0000" stroke="#ff0000" points="413.25,-1922 276.75,-1922 276.75,-1870 413.25,-1870 413.25,-1922"/>
<text text-anchor="middle" x="345" y="-1910" font-family="Arial" font-size="10.00" fill="#ffffff">runner:219:call_and_report</text>
<text text-anchor="middle" x="345" y="-1899" font-family="Arial" font-size="10.00" fill="#ffffff">100.00%</text>
<text text-anchor="middle" x="345" y="-1888" font-family="Arial" font-size="10.00" fill="#ffffff">(0.00%)</text>
<text text-anchor="middle" x="345" y="-1877" font-family="Arial" font-size="10.00" fill="#ffffff">15×</text>
</a>
</g>
</g>
<!-- 102&#45;&gt;1230 -->
<g id="edge3" class="edge"><title>102&#45;&gt;1230</title>
<path fill="none" stroke="#ff0000" stroke-width="4" d="M345,-1961.93C345,-1952.74 345,-1942.17 345,-1932.25"/>
<polygon fill="#ff0000" stroke="#ff0000" stroke-width="4" points="348.5,-1932.25 345,-1922.25 341.5,-1932.25 348.5,-1932.25"/>
<text text-anchor="middle" x="365" y="-1945" font-family="Arial" font-size="10.00" fill="#ff0000">100.00%</text>
<text text-anchor="middle" x="365" y="-1934" font-family="Arial" font-size="10.00" fill="#ff0000">15×</text>
</g>
<!-- 1249 -->
<g id="node29" class="node"><title>1249</title>
<g id="a_node29"><a xlink:title="/Users/Dave/anaconda/envs/neddy/lib/python3.9/site&#45;packages/_pytest/runner.py">
<polygon fill="#ff0000" stroke="#ff0000" points="418,-1830 272,-1830 272,-1778 418,-1778 418,-1830"/>
<text text-anchor="middle" x="345" y="-1818" font-family="Arial" font-size="10.00" fill="#ffffff">runner:247:call_runtest_hook</text>
<text text-anchor="middle" x="345" y="-1807" font-family="Arial" font-size="10.00" fill="#ffffff">99.99%</text>
<text text-anchor="middle" x="345" y="-1796" font-family="Arial" font-size="10.00" fill="#ffffff">(0.00%)</text>
<text text-anchor="middle" x="345" y="-1785" font-family="Arial" font-size="10.00" fill="#ffffff">15×</text>
</a>
</g>
</g>
<!-- 1230&#45;&gt;1249 -->
<g id="edge22" class="edge"><title>1230&#45;&gt;1249</title>
<path fill="none" stroke="#ff0000" stroke-width="4" d="M345,-1869.93C345,-1860.74 345,-1850.17 345,-1840.25"/>
<polygon fill="#ff0000" stroke="#ff0000" stroke-width="4" points="348.5,-1840.25 345,-1830.25 341.5,-1840.25 348.5,-1840.25"/>
<text text-anchor="middle" x="362" y="-1853" font-family="Arial" font-size="10.00" fill="#ff0000">99.99%</text>
<text text-anchor="middle" x="362" y="-1842" font-family="Arial" font-size="10.00" fill="#ff0000">15×</text>
</g>
<!-- 124 -->
<g id="node7" class="node"><title>124</title>
<g id="a_node7"><a xlink:title="/Users/Dave/git_repos/_packages_/python/neddy/neddy/namesearch.py">
<polygon fill="#1eba09" stroke="#1eba09" points="595,-420 339,-420 339,-368 595,-368 595,-420"/>
<text text-anchor="middle" x="467" y="-408" font-family="Arial" font-size="10.00" fill="#ffffff">namesearch:95:_build_api_url_and_download_results</text>
<text text-anchor="middle" x="467" y="-397" font-family="Arial" font-size="10.00" fill="#ffffff">52.99%</text>
<text text-anchor="middle" x="467" y="-386" font-family="Arial" font-size="10.00" fill="#ffffff">(0.00%)</text>
<text text-anchor="middle" x="467" y="-375" font-family="Arial" font-size="10.00" fill="#ffffff">12×</text>
</a>
</g>
</g>
<!-- 126 -->
<g id="node8" class="node"><title>126</title>
<g id="a_node8"><a xlink:title="/Users/Dave/anaconda/envs/neddy/lib/python3.9/site&#45;packages/fundamentals/download/multiobject_download.py">
<polygon fill="#fc1501" stroke="#fc1501" points="456,-328 230,-328 230,-276 456,-276 456,-328"/>
<text text-anchor="middle" x="343" y="-316" font-family="Arial" font-size="10.00" fill="#ffffff">multiobject_download:29:multiobject_download</text>
<text text-anchor="middle" x="343" y="-305" font-family="Arial" font-size="10.00" fill="#ffffff">98.00%</text>
<text text-anchor="middle" x="343" y="-294" font-family="Arial" font-size="10.00" fill="#ffffff">(0.00%)</text>
<text text-anchor="middle" x="343" y="-283" font-family="Arial" font-size="10.00" fill="#ffffff">21×</text>
</a>
</g>
</g>
<!-- 124&#45;&gt;126 -->
<g id="edge4" class="edge"><title>124&#45;&gt;126</title>
<path fill="none" stroke="#1eba09" stroke-width="2.12" d="M432.459,-367.93C417.402,-357.002 399.638,-344.108 383.924,-332.703"/>
<polygon fill="#1eba09" stroke="#1eba09" stroke-width="2.12" points="385.194,-330.468 377.786,-328.248 382.193,-334.604 385.194,-330.468"/>
<text text-anchor="middle" x="437" y="-351" font-family="Arial" font-size="10.00" fill="#1eba09">52.97%</text>
<text text-anchor="middle" x="437" y="-340" font-family="Arial" font-size="10.00" fill="#1eba09">12×</text>
</g>
<!-- 891 -->
<g id="node10" class="node"><title>891</title>
<g id="a_node10"><a xlink:title="/Users/Dave/anaconda/envs/neddy/lib/python3.9/multiprocessing/pool.py">
<polygon fill="#fc1501" stroke="#fc1501" points="381.25,-236 304.75,-236 304.75,-184 381.25,-184 381.25,-236"/>
<text text-anchor="middle" x="343" y="-224" font-family="Arial" font-size="10.00" fill="#ffffff">pool:850:next</text>
<text text-anchor="middle" x="343" y="-213" font-family="Arial" font-size="10.00" fill="#ffffff">97.92%</text>
<text text-anchor="middle" x="343" y="-202" font-family="Arial" font-size="10.00" fill="#ffffff">(0.00%)</text>
<text text-anchor="middle" x="343" y="-191" font-family="Arial" font-size="10.00" fill="#ffffff">86×</text>
</a>
</g>
</g>
<!-- 126&#45;&gt;891 -->
<g id="edge6" class="edge"><title>126&#45;&gt;891</title>
<path fill="none" stroke="#fc1501" stroke-width="3.92" d="M343,-275.93C343,-266.743 343,-256.166 343,-246.253"/>
<polygon fill="#fc1501" stroke="#fc1501" stroke-width="3.92" points="346.465,-246.148 343,-236.248 339.535,-246.148 346.465,-246.148"/>
<text text-anchor="middle" x="360" y="-259" font-family="Arial" font-size="10.00" fill="#fc1501">97.92%</text>
<text text-anchor="middle" x="360" y="-248" font-family="Arial" font-size="10.00" fill="#fc1501">86×</text>
</g>
<!-- 125 -->
<g id="node9" class="node"><title>125</title>
<g id="a_node9"><a xlink:title="/Users/Dave/git_repos/_packages_/python/neddy/neddy/conesearch.py">
<polygon fill="#0aaf2a" stroke="#0aaf2a" points="408.25,-481 211.75,-481 211.75,-429 408.25,-429 408.25,-481"/>
<text text-anchor="middle" x="310" y="-469" font-family="Arial" font-size="10.00" fill="#ffffff">conesearch:195:get_crossmatch_names</text>
<text text-anchor="middle" x="310" y="-458" font-family="Arial" font-size="10.00" fill="#ffffff">45.21%</text>
<text text-anchor="middle" x="310" y="-447" font-family="Arial" font-size="10.00" fill="#ffffff">(0.00%)</text>
<text text-anchor="middle" x="310" y="-436" font-family="Arial" font-size="10.00" fill="#ffffff">9×</text>
</a>
</g>
</g>
<!-- 125&#45;&gt;126 -->
<g id="edge5" class="edge"><title>125&#45;&gt;126</title>
<path fill="none" stroke="#0aaf2b" stroke-width="1.8" d="M301.776,-428.69C297.397,-411.302 294.024,-387.864 300,-368 303.651,-355.865 310.385,-343.909 317.459,-333.626"/>
<polygon fill="#0aaf2b" stroke="#0aaf2b" stroke-width="1.8" points="319.423,-334.91 321.406,-328.094 315.605,-332.186 319.423,-334.91"/>
<text text-anchor="middle" x="317" y="-397" font-family="Arial" font-size="10.00" fill="#0aaf2b">45.03%</text>
<text text-anchor="middle" x="317" y="-386" font-family="Arial" font-size="10.00" fill="#0aaf2b">9×</text>
</g>
<!-- 888 -->
<g id="node24" class="node"><title>888</title>
<g id="a_node24"><a xlink:title="/Users/Dave/anaconda/envs/neddy/lib/python3.9/threading.py">
<polygon fill="#fc1501" stroke="#fc1501" points="392,-144 294,-144 294,-92 392,-92 392,-144"/>
<text text-anchor="middle" x="343" y="-132" font-family="Arial" font-size="10.00" fill="#ffffff">threading:280:wait</text>
<text text-anchor="middle" x="343" y="-121" font-family="Arial" font-size="10.00" fill="#ffffff">97.94%</text>
<text text-anchor="middle" x="343" y="-110" font-family="Arial" font-size="10.00" fill="#ffffff">(0.00%)</text>
<text text-anchor="middle" x="343" y="-99" font-family="Arial" font-size="10.00" fill="#ffffff">337×</text>
</a>
</g>
</g>
<!-- 891&#45;&gt;888 -->
<g id="edge18" class="edge"><title>891&#45;&gt;888</title>
<path fill="none" stroke="#fc1501" stroke-width="3.92" d="M343,-183.93C343,-174.743 343,-164.166 343,-154.253"/>
<polygon fill="#fc1501" stroke="#fc1501" stroke-width="3.92" points="346.465,-154.148 343,-144.248 339.535,-154.148 346.465,-154.148"/>
<text text-anchor="middle" x="360" y="-167" font-family="Arial" font-size="10.00" fill="#fc1501">97.92%</text>
<text text-anchor="middle" x="360" y="-156" font-family="Arial" font-size="10.00" fill="#fc1501">64×</text>
</g>
<!-- 128 -->
<g id="node11" class="node"><title>128</title>
<g id="a_node11"><a xlink:title="/Users/Dave/git_repos/_packages_/python/neddy/neddy/cl_utils.py">
<polygon fill="#ff0100" stroke="#ff0100" points="387.25,-726 302.75,-726 302.75,-674 387.25,-674 387.25,-726"/>
<text text-anchor="middle" x="345" y="-714" font-family="Arial" font-size="10.00" fill="#ffffff">cl_utils:49:main</text>
<text text-anchor="middle" x="345" y="-703" font-family="Arial" font-size="10.00" fill="#ffffff">99.95%</text>
<text text-anchor="middle" x="345" y="-692" font-family="Arial" font-size="10.00" fill="#ffffff">(0.00%)</text>
<text text-anchor="middle" x="345" y="-681" font-family="Arial" font-size="10.00" fill="#ffffff">13×</text>
</a>
</g>
</g>
<!-- 218 -->
<g id="node12" class="node"><title>218</title>
<g id="a_node12"><a xlink:title="/Users/Dave/anaconda/envs/neddy/lib/python3.9/site&#45;packages/fundamentals/tools.py">
<polygon fill="#0d1375" stroke="#0d1375" points="286.25,-634 191.75,-634 191.75,-582 286.25,-582 286.25,-634"/>
<text text-anchor="middle" x="239" y="-622" font-family="Arial" font-size="10.00" fill="#ffffff">tools:127:__init__</text>
<text text-anchor="middle" x="239" y="-611" font-family="Arial" font-size="10.00" fill="#ffffff">1.51%</text>
<text text-anchor="middle" x="239" y="-600" font-family="Arial" font-size="10.00" fill="#ffffff">(0.04%)</text>
<text text-anchor="middle" x="239" y="-589" font-family="Arial" font-size="10.00" fill="#ffffff">13×</text>
</a>
</g>
</g>
<!-- 128&#45;&gt;218 -->
<g id="edge7" class="edge"><title>128&#45;&gt;218</title>
<path fill="none" stroke="#0d1375" stroke-width="0.5" d="M315.473,-673.93C301.805,-662.325 285.526,-648.503 271.508,-636.601"/>
<polygon fill="#0d1375" stroke="#0d1375" stroke-width="0.5" points="272.197,-635.579 268.736,-634.248 270.611,-637.447 272.197,-635.579"/>
<text text-anchor="middle" x="319.5" y="-657" font-family="Arial" font-size="10.00" fill="#0d1375">1.51%</text>
<text text-anchor="middle" x="319.5" y="-646" font-family="Arial" font-size="10.00" fill="#0d1375">13×</text>
</g>
<!-- 1870 -->
<g id="node13" class="node"><title>1870</title>
<g id="a_node13"><a xlink:title="/Users/Dave/git_repos/_packages_/python/neddy/neddy/conesearch.py">
<polygon fill="#e0b905" stroke="#e0b905" points="394.25,-634 295.75,-634 295.75,-582 394.25,-582 394.25,-634"/>
<text text-anchor="middle" x="345" y="-622" font-family="Arial" font-size="10.00" fill="#ffffff">conesearch:95:get</text>
<text text-anchor="middle" x="345" y="-611" font-family="Arial" font-size="10.00" fill="#ffffff">79.51%</text>
<text text-anchor="middle" x="345" y="-600" font-family="Arial" font-size="10.00" fill="#ffffff">(0.00%)</text>
<text text-anchor="middle" x="345" y="-589" font-family="Arial" font-size="10.00" fill="#ffffff">9×</text>
</a>
</g>
</g>
<!-- 128&#45;&gt;1870 -->
<g id="edge8" class="edge"><title>128&#45;&gt;1870</title>
<path fill="none" stroke="#e0b905" stroke-width="3.18" d="M345,-673.93C345,-664.452 345,-653.497 345,-643.315"/>
<polygon fill="#e0b905" stroke="#e0b905" stroke-width="3.18" points="348.115,-643.148 345,-634.248 341.885,-643.148 348.115,-643.148"/>
<text text-anchor="middle" x="362" y="-657" font-family="Arial" font-size="10.00" fill="#e0b905">79.51%</text>
<text text-anchor="middle" x="362" y="-646" font-family="Arial" font-size="10.00" fill="#e0b905">9×</text>
</g>
<!-- 2058 -->
<g id="node14" class="node"><title>2058</title>
<g id="a_node14"><a xlink:title="/Users/Dave/git_repos/_packages_/python/neddy/neddy/namesearch.py">
<polygon fill="#1fba09" stroke="#1fba09" points="464,-542 362,-542 362,-490 464,-490 464,-542"/>
<text text-anchor="middle" x="413" y="-530" font-family="Arial" font-size="10.00" fill="#ffffff">namesearch:71:get</text>
<text text-anchor="middle" x="413" y="-519" font-family="Arial" font-size="10.00" fill="#ffffff">53.04%</text>
<text text-anchor="middle" x="413" y="-508" font-family="Arial" font-size="10.00" fill="#ffffff">(0.00%)</text>
<text text-anchor="middle" x="413" y="-497" font-family="Arial" font-size="10.00" fill="#ffffff">12×</text>
</a>
</g>
</g>
<!-- 128&#45;&gt;2058 -->
<g id="edge9" class="edge"><title>128&#45;&gt;2058</title>
<path fill="none" stroke="#0c6b8b" stroke-width="0.75" d="M373.417,-673.826C376.106,-670.962 378.687,-667.993 381,-665 390.607,-652.565 393.138,-648.942 398,-634 407.365,-605.217 410.916,-570.67 412.245,-546.609"/>
<polygon fill="#0c6b8b" stroke="#0c6b8b" stroke-width="0.75" points="413.752,-546.613 412.468,-542.242 410.746,-546.46 413.752,-546.613"/>
<text text-anchor="middle" x="426" y="-611" font-family="Arial" font-size="10.00" fill="#0c6b8b">18.74%</text>
<text text-anchor="middle" x="426" y="-600" font-family="Arial" font-size="10.00" fill="#0c6b8b">3×</text>
</g>
<!-- 214 -->
<g id="node17" class="node"><title>214</title>
<g id="a_node17"><a xlink:title="/Users/Dave/anaconda/envs/neddy/lib/python3.9/site&#45;packages/psutil/__init__.py">
<polygon fill="#0d0f73" stroke="#0d0f73" points="306,-542 172,-542 172,-490 306,-490 306,-542"/>
<text text-anchor="middle" x="239" y="-530" font-family="Arial" font-size="10.00" fill="#ffffff">__init__:1400:process_iter</text>
<text text-anchor="middle" x="239" y="-519" font-family="Arial" font-size="10.00" fill="#ffffff">0.53%</text>
<text text-anchor="middle" x="239" y="-508" font-family="Arial" font-size="10.00" fill="#ffffff">(0.02%)</text>
<text text-anchor="middle" x="239" y="-497" font-family="Arial" font-size="10.00" fill="#ffffff">11038×</text>
</a>
</g>
</g>
<!-- 218&#45;&gt;214 -->
<g id="edge11" class="edge"><title>218&#45;&gt;214</title>
<path fill="none" stroke="#0d0f73" stroke-width="0.5" d="M239,-581.93C239,-570.712 239,-557.422 239,-545.798"/>
<polygon fill="#0d0f73" stroke="#0d0f73" stroke-width="0.5" points="240.225,-545.748 239,-542.248 237.775,-545.748 240.225,-545.748"/>
<text text-anchor="middle" x="256" y="-565" font-family="Arial" font-size="10.00" fill="#0d0f73">0.53%</text>
<text text-anchor="middle" x="256" y="-554" font-family="Arial" font-size="10.00" fill="#0d0f73">11038×</text>
</g>
<!-- 1870&#45;&gt;125 -->
<g id="edge25" class="edge"><title>1870&#45;&gt;125</title>
<path fill="none" stroke="#0aaf2a" stroke-width="1.81" d="M326.864,-581.663C325.371,-578.83 324.039,-575.914 323,-573 317.599,-557.851 313.926,-517.109 311.897,-487.967"/>
<polygon fill="#0aaf2a" stroke="#0aaf2a" stroke-width="1.81" points="314.231,-487.727 311.44,-481.2 309.552,-488.043 314.231,-487.727"/>
<text text-anchor="middle" x="340" y="-565" font-family="Arial" font-size="10.00" fill="#0aaf2a">45.21%</text>
<text text-anchor="middle" x="340" y="-554" font-family="Arial" font-size="10.00" fill="#0aaf2a">9×</text>
</g>
<!-- 1870&#45;&gt;2058 -->
<g id="edge26" class="edge"><title>1870&#45;&gt;2058</title>
<path fill="none" stroke="#0ba069" stroke-width="1.37" d="M354.313,-581.977C358.78,-571.794 364.751,-560.266 372,-551 373.197,-549.471 374.473,-547.963 375.807,-546.485"/>
<polygon fill="#0ba069" stroke="#0ba069" stroke-width="1.37" points="377.376,-547.832 379.965,-542.142 374.393,-544.975 377.376,-547.832"/>
<text text-anchor="middle" x="389" y="-565" font-family="Arial" font-size="10.00" fill="#0ba069">34.30%</text>
<text text-anchor="middle" x="389" y="-554" font-family="Arial" font-size="10.00" fill="#0ba069">9×</text>
</g>
<!-- 2058&#45;&gt;124 -->
<g id="edge33" class="edge"><title>2058&#45;&gt;124</title>
<path fill="none" stroke="#1eba09" stroke-width="2.12" d="M424.32,-489.844C432.564,-471.524 443.793,-446.571 452.664,-426.858"/>
<polygon fill="#1eba09" stroke="#1eba09" stroke-width="2.12" points="455.029,-427.828 455.695,-420.123 450.369,-425.731 455.029,-427.828"/>
<text text-anchor="middle" x="469" y="-458" font-family="Arial" font-size="10.00" fill="#1eba09">52.99%</text>
<text text-anchor="middle" x="469" y="-447" font-family="Arial" font-size="10.00" fill="#1eba09">12×</text>
</g>
<!-- 176 -->
<g id="node15" class="node"><title>176</title>
<g id="a_node15"><a xlink:title="/Users/Dave/anaconda/envs/neddy/lib/python3.9/site&#45;packages/pluggy/_hooks.py">
<polygon fill="#ff0000" stroke="#ff0000" points="399,-1554 291,-1554 291,-1502 399,-1502 399,-1554"/>
<text text-anchor="middle" x="345" y="-1542" font-family="Arial" font-size="10.00" fill="#ffffff">_hooks:244:__call__</text>
<text text-anchor="middle" x="345" y="-1531" font-family="Arial" font-size="10.00" fill="#ffffff">100.00%</text>
<text text-anchor="middle" x="345" y="-1520" font-family="Arial" font-size="10.00" fill="#ffffff">(0.00%)</text>
<text text-anchor="middle" x="345" y="-1509" font-family="Arial" font-size="10.00" fill="#ffffff">76×</text>
</a>
</g>
</g>
<!-- 1202 -->
<g id="node16" class="node"><title>1202</title>
<g id="a_node16"><a xlink:title="/Users/Dave/anaconda/envs/neddy/lib/python3.9/site&#45;packages/pluggy/_manager.py">
<polygon fill="#ff0000" stroke="#ff0000" points="408.25,-1462 281.75,-1462 281.75,-1410 408.25,-1410 408.25,-1462"/>
<text text-anchor="middle" x="345" y="-1450" font-family="Arial" font-size="10.00" fill="#ffffff">_manager:77:_hookexec</text>
<text text-anchor="middle" x="345" y="-1439" font-family="Arial" font-size="10.00" fill="#ffffff">100.00%</text>
<text text-anchor="middle" x="345" y="-1428" font-family="Arial" font-size="10.00" fill="#ffffff">(0.00%)</text>
<text text-anchor="middle" x="345" y="-1417" font-family="Arial" font-size="10.00" fill="#ffffff">76×</text>
</a>
</g>
</g>
<!-- 176&#45;&gt;1202 -->
<g id="edge10" class="edge"><title>176&#45;&gt;1202</title>
<path fill="none" stroke="#ff0000" stroke-width="4" d="M345,-1501.93C345,-1492.74 345,-1482.17 345,-1472.25"/>
<polygon fill="#ff0000" stroke="#ff0000" stroke-width="4" points="348.5,-1472.25 345,-1462.25 341.5,-1472.25 348.5,-1472.25"/>
<text text-anchor="middle" x="365" y="-1485" font-family="Arial" font-size="10.00" fill="#ff0000">100.00%</text>
<text text-anchor="middle" x="365" y="-1474" font-family="Arial" font-size="10.00" fill="#ff0000">55×</text>
</g>
<!-- 1202&#45;&gt;41 -->
<g id="edge20" class="edge"><title>1202&#45;&gt;41</title>
<path fill="none" stroke="#ff0000" stroke-width="4" d="M345,-1409.93C345,-1400.74 345,-1390.17 345,-1380.25"/>
<polygon fill="#ff0000" stroke="#ff0000" stroke-width="4" points="348.5,-1380.25 345,-1370.25 341.5,-1380.25 348.5,-1380.25"/>
<text text-anchor="middle" x="365" y="-1393" font-family="Arial" font-size="10.00" fill="#ff0000">100.00%</text>
<text text-anchor="middle" x="365" y="-1382" font-family="Arial" font-size="10.00" fill="#ff0000">55×</text>
</g>
<!-- 322&#45;&gt;128 -->
<g id="edge12" class="edge"><title>322&#45;&gt;128</title>
<path fill="none" stroke="#0ab026" stroke-width="1.83" d="M153.096,-765.93C198.58,-750.54 255.583,-731.254 295.602,-717.714"/>
<polygon fill="#0ab026" stroke="#0ab026" stroke-width="1.83" points="296.692,-719.857 302.371,-715.423 295.167,-715.348 296.692,-719.857"/>
<text text-anchor="middle" x="261" y="-749" font-family="Arial" font-size="10.00" fill="#0ab026">45.74%</text>
<text text-anchor="middle" x="261" y="-738" font-family="Arial" font-size="10.00" fill="#0ab026">6×</text>
</g>
<!-- 327&#45;&gt;128 -->
<g id="edge13" class="edge"><title>327&#45;&gt;128</title>
<path fill="none" stroke="#0d307d" stroke-width="0.5" d="M280.07,-765.93C291.579,-754.421 305.266,-740.734 317.101,-728.899"/>
<polygon fill="#0d307d" stroke="#0d307d" stroke-width="0.5" points="318.144,-729.589 319.752,-726.248 316.411,-727.856 318.144,-729.589"/>
<text text-anchor="middle" x="325.5" y="-749" font-family="Arial" font-size="10.00" fill="#0d307d">7.79%</text>
<text text-anchor="middle" x="325.5" y="-738" font-family="Arial" font-size="10.00" fill="#0d307d">1×</text>
</g>
<!-- 328&#45;&gt;128 -->
<g id="edge14" class="edge"><title>328&#45;&gt;128</title>
<path fill="none" stroke="#0c968a" stroke-width="1.09" d="M410.651,-765.93C399.406,-754.808 386.103,-741.651 374.422,-730.099"/>
<polygon fill="#0c968a" stroke="#0c968a" stroke-width="1.09" points="375.505,-728.61 370.528,-726.248 372.946,-731.198 375.505,-728.61"/>
<text text-anchor="middle" x="419" y="-749" font-family="Arial" font-size="10.00" fill="#0c968a">27.21%</text>
<text text-anchor="middle" x="419" y="-738" font-family="Arial" font-size="10.00" fill="#0c968a">2×</text>
</g>
<!-- 330&#45;&gt;128 -->
<g id="edge15" class="edge"><title>330&#45;&gt;128</title>
<path fill="none" stroke="#0c6d8c" stroke-width="0.76" d="M544.84,-765.93C495.624,-749.939 433.458,-729.741 391.64,-716.154"/>
<polygon fill="#0c6d8c" stroke="#0c6d8c" stroke-width="0.76" points="392.065,-714.673 387.405,-714.778 391.114,-717.602 392.065,-714.673"/>
<text text-anchor="middle" x="534" y="-749" font-family="Arial" font-size="10.00" fill="#0c6d8c">19.08%</text>
<text text-anchor="middle" x="534" y="-738" font-family="Arial" font-size="10.00" fill="#0c6d8c">3×</text>
</g>
<!-- 2008 -->
<g id="node23" class="node"><title>2008</title>
<g id="a_node23"><a xlink:title="/Users/Dave/anaconda/envs/neddy/lib/python3.9/unittest/case.py">
<polygon fill="#ff0000" stroke="#ff0000" points="393.25,-1094 296.75,-1094 296.75,-1042 393.25,-1042 393.25,-1094"/>
<text text-anchor="middle" x="345" y="-1082" font-family="Arial" font-size="10.00" fill="#ffffff">case:650:__call__</text>
<text text-anchor="middle" x="345" y="-1071" font-family="Arial" font-size="10.00" fill="#ffffff">99.99%</text>
<text text-anchor="middle" x="345" y="-1060" font-family="Arial" font-size="10.00" fill="#ffffff">(0.00%)</text>
<text text-anchor="middle" x="345" y="-1049" font-family="Arial" font-size="10.00" fill="#ffffff">5×</text>
</a>
</g>
</g>
<!-- 570&#45;&gt;2008 -->
<g id="edge16" class="edge"><title>570&#45;&gt;2008</title>
<path fill="none" stroke="#ff0000" stroke-width="4" d="M345,-1133.93C345,-1124.74 345,-1114.17 345,-1104.25"/>
<polygon fill="#ff0000" stroke="#ff0000" stroke-width="4" points="348.5,-1104.25 345,-1094.25 341.5,-1104.25 348.5,-1104.25"/>
<text text-anchor="middle" x="362" y="-1117" font-family="Arial" font-size="10.00" fill="#ff0000">99.99%</text>
<text text-anchor="middle" x="362" y="-1106" font-family="Arial" font-size="10.00" fill="#ff0000">5×</text>
</g>
<!-- 2008&#45;&gt;43 -->
<g id="edge32" class="edge"><title>2008&#45;&gt;43</title>
<path fill="none" stroke="#ff0000" stroke-width="4" d="M345,-1041.93C345,-1032.74 345,-1022.17 345,-1012.25"/>
<polygon fill="#ff0000" stroke="#ff0000" stroke-width="4" points="348.5,-1012.25 345,-1002.25 341.5,-1012.25 348.5,-1012.25"/>
<text text-anchor="middle" x="362" y="-1025" font-family="Arial" font-size="10.00" fill="#ff0000">99.99%</text>
<text text-anchor="middle" x="362" y="-1014" font-family="Arial" font-size="10.00" fill="#ff0000">5×</text>
</g>
<!-- 911 -->
<g id="node25" class="node"><title>911</title>
<g id="a_node25"><a xlink:title="~">
<polygon fill="#fc1501" stroke="#fc1501" points="455.25,-52 230.75,-52 230.75,-0 455.25,-0 455.25,-52"/>
<text text-anchor="middle" x="343" y="-40" font-family="Arial" font-size="10.00" fill="#ffffff">~:0:&lt;method &#39;acquire&#39; of &#39;_thread.lock&#39; objects&gt;</text>
<text text-anchor="middle" x="343" y="-29" font-family="Arial" font-size="10.00" fill="#ffffff">97.93%</text>
<text text-anchor="middle" x="343" y="-18" font-family="Arial" font-size="10.00" fill="#ffffff">(97.94%)</text>
<text text-anchor="middle" x="343" y="-7" font-family="Arial" font-size="10.00" fill="#ffffff">1350×</text>
</a>
</g>
</g>
<!-- 888&#45;&gt;911 -->
<g id="edge17" class="edge"><title>888&#45;&gt;911</title>
<path fill="none" stroke="#fc1501" stroke-width="3.92" d="M343,-91.93C343,-82.7425 343,-72.1661 343,-62.2526"/>
<polygon fill="#fc1501" stroke="#fc1501" stroke-width="3.92" points="346.465,-62.1477 343,-52.2477 339.535,-62.1478 346.465,-62.1477"/>
<text text-anchor="middle" x="360" y="-75" font-family="Arial" font-size="10.00" fill="#fc1501">97.92%</text>
<text text-anchor="middle" x="360" y="-64" font-family="Arial" font-size="10.00" fill="#fc1501">674×</text>
</g>
<!-- 907 -->
<g id="node26" class="node"><title>907</title>
<g id="a_node26"><a xlink:title="/Users/Dave/anaconda/envs/neddy/lib/python3.9/site&#45;packages/_pytest/runner.py">
<polygon fill="#ff0000" stroke="#ff0000" points="399,-1738 291,-1738 291,-1686 399,-1686 399,-1738"/>
<text text-anchor="middle" x="345" y="-1726" font-family="Arial" font-size="10.00" fill="#ffffff">runner:318:from_call</text>
<text text-anchor="middle" x="345" y="-1715" font-family="Arial" font-size="10.00" fill="#ffffff">99.99%</text>
<text text-anchor="middle" x="345" y="-1704" font-family="Arial" font-size="10.00" fill="#ffffff">(0.00%)</text>
<text text-anchor="middle" x="345" y="-1693" font-family="Arial" font-size="10.00" fill="#ffffff">15×</text>
</a>
</g>
</g>
<!-- 1231 -->
<g id="node27" class="node"><title>1231</title>
<g id="a_node27"><a xlink:title="/Users/Dave/anaconda/envs/neddy/lib/python3.9/site&#45;packages/_pytest/runner.py">
<polygon fill="#ff0000" stroke="#ff0000" points="401,-1646 289,-1646 289,-1594 401,-1594 401,-1646"/>
<text text-anchor="middle" x="345" y="-1634" font-family="Arial" font-size="10.00" fill="#ffffff">runner:262:&lt;lambda&gt;</text>
<text text-anchor="middle" x="345" y="-1623" font-family="Arial" font-size="10.00" fill="#ffffff">99.99%</text>
<text text-anchor="middle" x="345" y="-1612" font-family="Arial" font-size="10.00" fill="#ffffff">(0.00%)</text>
<text text-anchor="middle" x="345" y="-1601" font-family="Arial" font-size="10.00" fill="#ffffff">15×</text>
</a>
</g>
</g>
<!-- 907&#45;&gt;1231 -->
<g id="edge19" class="edge"><title>907&#45;&gt;1231</title>
<path fill="none" stroke="#ff0000" stroke-width="4" d="M345,-1685.93C345,-1676.74 345,-1666.17 345,-1656.25"/>
<polygon fill="#ff0000" stroke="#ff0000" stroke-width="4" points="348.5,-1656.25 345,-1646.25 341.5,-1656.25 348.5,-1656.25"/>
<text text-anchor="middle" x="362" y="-1669" font-family="Arial" font-size="10.00" fill="#ff0000">99.99%</text>
<text text-anchor="middle" x="362" y="-1658" font-family="Arial" font-size="10.00" fill="#ff0000">15×</text>
</g>
<!-- 1231&#45;&gt;176 -->
<g id="edge23" class="edge"><title>1231&#45;&gt;176</title>
<path fill="none" stroke="#ff0000" stroke-width="4" d="M345,-1593.93C345,-1584.74 345,-1574.17 345,-1564.25"/>
<polygon fill="#ff0000" stroke="#ff0000" stroke-width="4" points="348.5,-1564.25 345,-1554.25 341.5,-1564.25 348.5,-1564.25"/>
<text text-anchor="middle" x="362" y="-1577" font-family="Arial" font-size="10.00" fill="#ff0000">99.99%</text>
<text text-anchor="middle" x="362" y="-1566" font-family="Arial" font-size="10.00" fill="#ff0000">15×</text>
</g>
<!-- 1229 -->
<g id="node28" class="node"><title>1229</title>
<g id="a_node28"><a xlink:title="/Users/Dave/anaconda/envs/neddy/lib/python3.9/site&#45;packages/_pytest/runner.py">
<polygon fill="#ff0000" stroke="#ff0000" points="431,-2106 259,-2106 259,-2054 431,-2054 431,-2106"/>
<text text-anchor="middle" x="345" y="-2094" font-family="Arial" font-size="10.00" fill="#ffffff">runner:111:pytest_runtest_protocol</text>
<text text-anchor="middle" x="345" y="-2083" font-family="Arial" font-size="10.00" fill="#ffffff">100.00%</text>
<text text-anchor="middle" x="345" y="-2072" font-family="Arial" font-size="10.00" fill="#ffffff">(0.00%)</text>
<text text-anchor="middle" x="345" y="-2061" font-family="Arial" font-size="10.00" fill="#ffffff">5×</text>
</a>
</g>
</g>
<!-- 1229&#45;&gt;102 -->
<g id="edge21" class="edge"><title>1229&#45;&gt;102</title>
<path fill="none" stroke="#ff0000" stroke-width="4" d="M345,-2053.93C345,-2044.74 345,-2034.17 345,-2024.25"/>
<polygon fill="#ff0000" stroke="#ff0000" stroke-width="4" points="348.5,-2024.25 345,-2014.25 341.5,-2024.25 348.5,-2024.25"/>
<text text-anchor="middle" x="365" y="-2037" font-family="Arial" font-size="10.00" fill="#ff0000">100.00%</text>
<text text-anchor="middle" x="365" y="-2026" font-family="Arial" font-size="10.00" fill="#ff0000">5×</text>
</g>
<!-- 1249&#45;&gt;907 -->
<g id="edge24" class="edge"><title>1249&#45;&gt;907</title>
<path fill="none" stroke="#ff0000" stroke-width="4" d="M345,-1777.93C345,-1768.74 345,-1758.17 345,-1748.25"/>
<polygon fill="#ff0000" stroke="#ff0000" stroke-width="4" points="348.5,-1748.25 345,-1738.25 341.5,-1748.25 348.5,-1748.25"/>
<text text-anchor="middle" x="362" y="-1761" font-family="Arial" font-size="10.00" fill="#ff0000">99.99%</text>
<text text-anchor="middle" x="362" y="-1750" font-family="Arial" font-size="10.00" fill="#ff0000">15×</text>
</g>
<!-- 2101 -->
<g id="node30" class="node"><title>2101</title>
<g id="a_node30"><a xlink:title="/Users/Dave/anaconda/envs/neddy/lib/python3.9/site&#45;packages/psutil/_psosx.py">
<polygon fill="#0d1074" stroke="#0d1074" points="547.25,-2106 440.75,-2106 440.75,-2054 547.25,-2054 547.25,-2106"/>
<text text-anchor="middle" x="494" y="-2094" font-family="Arial" font-size="10.00" fill="#ffffff">_psosx:343:wrapper</text>
<text text-anchor="middle" x="494" y="-2083" font-family="Arial" font-size="10.00" fill="#ffffff">0.84%</text>
<text text-anchor="middle" x="494" y="-2072" font-family="Arial" font-size="10.00" fill="#ffffff">(0.03%)</text>
<text text-anchor="middle" x="494" y="-2061" font-family="Arial" font-size="10.00" fill="#ffffff">33079×</text>
</a>
</g>
</g>
</g>
</svg>
